<?xml version="1.0" standalone="no"?>
<!DOCTYPE svg PUBLIC "-//W3C//DTD SVG 20010904//EN"
 "http://www.w3.org/TR/2001/REC-SVG-20010904/DTD/svg10.dtd">
<svg version="1.0" xmlns="http://www.w3.org/2000/svg"
 width="130.000000pt" height="130.000000pt" viewBox="0 0 130.000000 130.000000"
 preserveAspectRatio="xMidYMid meet">

<g transform="translate(0.000000,130.000000) scale(0.100000,-0.100000)"
fill="#000000" stroke="none">
<path d="M500 1241 c-270 -73 -460 -318 -460 -594 0 -106 15 -168 66 -274 100
-209 314 -343 547 -343 106 0 168 15 274 66 255 122 393 414 328 693 -41 173
-166 327 -328 405 -50 24 -116 49 -145 55 -77 16 -208 12 -282 -8z m-100 -306
c53 -19 56 -19 39 2 -8 9 -9 14 -4 12 6 -2 35 -13 64 -24 37 -14 67 -35 97
-69 44 -48 54 -52 34 -15 -15 26 -5 24 46 -12 34 -25 45 -41 53 -73 8 -37 9
-38 10 -11 l2 30 45 -50 c25 -27 59 -78 76 -113 22 -44 34 -60 42 -52 21 21
25 9 11 -31 -8 -23 -15 -43 -15 -44 0 -2 10 -1 22 3 l22 5 -23 -31 c-12 -17
-26 -34 -30 -37 -5 -3 -3 -24 3 -47 23 -78 27 -108 12 -108 -8 0 -21 33 -35
87 -41 165 -128 312 -238 404 -69 58 -158 105 -168 89 -3 -5 23 -24 57 -42 95
-50 205 -164 256 -267 47 -93 51 -111 23 -111 -39 0 -51 11 -52 49 l-1 36 -9
-32 c-10 -35 -15 -38 -38 -24 -12 8 -13 15 -3 38 l12 28 -19 -22 c-11 -13 -22
-23 -24 -23 -3 0 -22 27 -42 61 -21 33 -62 84 -92 114 -49 48 -53 54 -36 64
15 8 9 10 -28 11 -29 0 -51 6 -59 15 -10 13 -9 15 11 16 16 1 8 6 -23 16 -39
11 -52 22 -73 57 -27 46 -32 85 -13 104 16 16 37 15 88 -3z"/>
</g>
</svg>
